<svg width="124" height="22" viewBox="0 0 124 22" fill="none" xmlns="http://www.w3.org/2000/svg">
<path d="M40.9647 1.04878C41.0591 1.04878 41.1347 1.08657 41.1914 1.16216C41.267 1.21885 41.3048 1.29444 41.3048 1.38892V4.73368C41.3048 4.82816 41.267 4.9132 41.1914 4.98879C41.1347 5.04548 41.0591 5.07382 40.9647 5.07382H37.4498C37.3554 5.07382 37.3081 5.12107 37.3081 5.21555V20.5504C37.3081 20.6449 37.2703 20.7299 37.1947 20.8055C37.138 20.8622 37.0624 20.8905 36.968 20.8905H32.9429C32.8484 20.8905 32.7634 20.8622 32.6878 20.8055C32.6311 20.7299 32.6028 20.6449 32.6028 20.5504V5.21555C32.6028 5.12107 32.5555 5.07382 32.461 5.07382H29.0879C28.9935 5.07382 28.9084 5.04548 28.8328 4.98879C28.7761 4.9132 28.7478 4.82816 28.7478 4.73368V1.38892C28.7478 1.29444 28.7761 1.21885 28.8328 1.16216C28.9084 1.08657 28.9935 1.04878 29.0879 1.04878H40.9647Z" fill="white"/>
<path d="M45.028 4.9321C44.3288 4.9321 43.743 4.70533 43.2706 4.25181C42.8171 3.77938 42.5903 3.18413 42.5903 2.46605C42.5903 1.72907 42.8171 1.13382 43.2706 0.680289C43.7241 0.226763 44.3099 0 45.028 0C45.7461 0 46.3319 0.226763 46.7854 0.680289C47.2579 1.13382 47.4941 1.72907 47.4941 2.46605C47.4941 3.16524 47.2579 3.75104 46.7854 4.22346C46.3319 4.69589 45.7461 4.9321 45.028 4.9321ZM43.0722 20.8905C42.9777 20.8905 42.8927 20.8622 42.8171 20.8055C42.7604 20.7299 42.732 20.6449 42.732 20.5504V6.57613C42.732 6.48165 42.7604 6.40606 42.8171 6.34937C42.8927 6.27378 42.9777 6.23599 43.0722 6.23599H47.0972C47.1917 6.23599 47.2673 6.27378 47.324 6.34937C47.3996 6.40606 47.4374 6.48165 47.4374 6.57613V20.5504C47.4374 20.6449 47.3996 20.7299 47.324 20.8055C47.2673 20.8622 47.1917 20.8905 47.0972 20.8905H43.0722Z" fill="white"/>
<path d="M54.599 21.1173C52.8038 21.1173 51.4054 20.6921 50.4039 19.8418C49.4024 18.9725 48.9016 17.7631 48.9016 16.2136V10.913C48.9016 9.43901 49.4024 8.25796 50.4039 7.3698C51.4243 6.46275 52.8227 6.00922 54.599 6.00922C56.3753 6.00922 57.7642 6.4533 58.7658 7.34146C59.7673 8.22961 60.2681 9.39177 60.2681 10.8279V11.4515C60.2681 11.546 60.2303 11.6311 60.1547 11.7066C60.098 11.7633 60.0224 11.7917 59.9279 11.7917L55.9029 11.9618C55.6761 11.9618 55.5628 11.8484 55.5628 11.6216V11.1964C55.5628 10.8752 55.4683 10.6012 55.2793 10.3744C55.1092 10.1476 54.8825 10.0343 54.599 10.0343C54.2967 10.0343 54.051 10.1476 53.862 10.3744C53.692 10.6012 53.6069 10.9035 53.6069 11.2815V15.8451C53.6069 16.223 53.692 16.5254 53.862 16.7521C54.051 16.9789 54.2967 17.0923 54.599 17.0923C54.8825 17.0923 55.1092 16.9789 55.2793 16.7521C55.4683 16.5254 55.5628 16.2419 55.5628 15.9018V15.4766C55.5628 15.3821 55.5911 15.3065 55.6478 15.2498C55.7234 15.1742 55.8084 15.1364 55.9029 15.1364L59.9279 15.1648C60.0224 15.1648 60.098 15.2026 60.1547 15.2782C60.2303 15.3349 60.2681 15.4104 60.2681 15.5049V16.2703C60.2681 17.8009 59.7673 18.9914 58.7658 19.8418C57.7831 20.6921 56.3942 21.1173 54.599 21.1173Z" fill="white"/>
<path d="M66.9948 21.1173C65.2752 21.1173 63.9052 20.711 62.8847 19.8985C61.8643 19.067 61.3541 17.9804 61.3541 16.6387V16.4687C61.3541 16.3742 61.3824 16.2986 61.4391 16.2419C61.5147 16.1663 61.5997 16.1285 61.6942 16.1285H65.4925C65.587 16.1285 65.6626 16.1663 65.7193 16.2419C65.7949 16.2986 65.8326 16.3742 65.8326 16.4687V16.5254C65.8326 16.8655 65.946 17.1395 66.1728 17.3474C66.4184 17.5363 66.683 17.6308 66.9665 17.6308C67.231 17.6308 67.4389 17.5552 67.5901 17.4041C67.7412 17.234 67.8168 17.0261 67.8168 16.7805C67.8168 16.4403 67.6562 16.1852 67.3349 16.0151C67.0137 15.8262 66.5035 15.6183 65.8043 15.3915L65.1807 15.1931C62.743 14.3617 61.5241 12.8499 61.5241 10.6579C61.5241 9.2217 62.006 8.08788 62.9698 7.25642C63.9335 6.42495 65.2185 6.00922 66.8247 6.00922C68.4688 6.00922 69.7821 6.46275 70.7647 7.3698C71.7474 8.25796 72.2387 9.43901 72.2387 10.913C72.2387 11.1208 72.1253 11.2248 71.8986 11.2248H68.2137C68.1192 11.2248 68.0341 11.1964 67.9585 11.1397C67.9019 11.0641 67.8735 10.9791 67.8735 10.8846V10.6579C67.8735 10.3555 67.7885 10.1193 67.6184 9.94923C67.4483 9.76026 67.2216 9.66578 66.9381 9.66578C66.6547 9.66578 66.4279 9.76971 66.2578 9.97758C66.1067 10.1665 66.0311 10.3933 66.0311 10.6579C66.0311 11.0736 66.22 11.3948 66.598 11.6216C66.9759 11.8484 67.505 12.0751 68.1853 12.3019C69.0168 12.5854 69.7349 12.8877 70.3396 13.209C70.9443 13.5113 71.4639 13.9554 71.8986 14.5412C72.3332 15.1081 72.5505 15.8356 72.5505 16.7238C72.5505 18.0844 72.0403 19.1615 71.0199 19.9552C70.0183 20.7299 68.6766 21.1173 66.9948 21.1173Z" fill="white"/>
<path d="M85.7249 1.04878C85.8194 1.04878 85.895 1.08657 85.9517 1.16216C86.0273 1.21885 86.065 1.29444 86.065 1.38892V4.73368C86.065 4.82816 86.0273 4.9132 85.9517 4.98879C85.895 5.04548 85.8194 5.07382 85.7249 5.07382H82.2101C82.1156 5.07382 82.0684 5.12107 82.0684 5.21555V20.5504C82.0684 20.6449 82.0306 20.7299 81.955 20.8055C81.8983 20.8622 81.8227 20.8905 81.7282 20.8905H77.7032C77.6087 20.8905 77.5236 20.8622 77.4481 20.8055C77.3914 20.7299 77.363 20.6449 77.363 20.5504V5.21555C77.363 5.12107 77.3158 5.07382 77.2213 5.07382H73.8482C73.7537 5.07382 73.6687 5.04548 73.5931 4.98879C73.5364 4.9132 73.508 4.82816 73.508 4.73368V1.38892C73.508 1.29444 73.5364 1.21885 73.5931 1.16216C73.6687 1.08657 73.7537 1.04878 73.8482 1.04878H85.7249Z" fill="white"/>
<path d="M93.5141 6.57613C93.5141 6.48165 93.5425 6.40606 93.5992 6.34937C93.6748 6.27378 93.7598 6.23599 93.8543 6.23599H97.8793C97.9738 6.23599 98.0494 6.27378 98.1061 6.34937C98.1817 6.40606 98.2195 6.48165 98.2195 6.57613V20.5504C98.2195 20.6449 98.1817 20.7299 98.1061 20.8055C98.0494 20.8622 97.9738 20.8905 97.8793 20.8905H93.8543C93.7598 20.8905 93.6748 20.8622 93.5992 20.8055C93.5425 20.7299 93.5141 20.6449 93.5141 20.5504V20.1819C93.5141 20.1252 93.4952 20.0969 93.4574 20.0969C93.4196 20.078 93.3819 20.0969 93.3441 20.1536C93.0606 20.5126 92.711 20.7583 92.2953 20.8905C91.8984 21.0417 91.426 21.1173 90.878 21.1173C89.7442 21.1173 88.7993 20.7677 88.0435 20.0685C87.2876 19.3693 86.9097 18.2922 86.9097 16.8372V6.57613C86.9097 6.48165 86.938 6.40606 86.9947 6.34937C87.0703 6.27378 87.1553 6.23599 87.2498 6.23599H91.2748C91.3693 6.23599 91.4449 6.27378 91.5016 6.34937C91.5772 6.40606 91.615 6.48165 91.615 6.57613V15.7884C91.615 16.6387 91.9173 17.0639 92.522 17.0639C92.8433 17.0639 93.0889 16.9505 93.259 16.7238C93.4291 16.497 93.5141 16.1758 93.5141 15.76V6.57613Z" fill="white"/>
<path d="M107.321 6.00922C109.909 6.00922 111.204 7.64381 111.204 10.913V16.2136C111.204 19.4827 109.909 21.1173 107.321 21.1173C106.225 21.1173 105.365 20.7205 104.741 19.9268C104.703 19.889 104.666 19.8796 104.628 19.8985C104.59 19.8985 104.571 19.9268 104.571 19.9835V20.5504C104.571 20.6449 104.533 20.7299 104.458 20.8055C104.401 20.8622 104.325 20.8905 104.231 20.8905H100.206C100.111 20.8905 100.026 20.8622 99.9507 20.8055C99.8941 20.7299 99.8657 20.6449 99.8657 20.5504V1.38892C99.8657 1.29444 99.8941 1.21885 99.9507 1.16216C100.026 1.08657 100.111 1.04878 100.206 1.04878H104.231C104.325 1.04878 104.401 1.08657 104.458 1.16216C104.533 1.21885 104.571 1.29444 104.571 1.38892V7.22807C104.571 7.26587 104.58 7.28476 104.599 7.28476C104.656 7.28476 104.769 7.19973 104.94 7.02966C105.544 6.34937 106.338 6.00922 107.321 6.00922ZM106.499 11.2815C106.499 10.9035 106.413 10.6012 106.243 10.3744C106.073 10.1476 105.847 10.0343 105.563 10.0343C105.261 10.0343 105.015 10.1476 104.826 10.3744C104.656 10.6012 104.571 10.9035 104.571 11.2815V15.8451C104.571 16.223 104.656 16.5254 104.826 16.7521C105.015 16.9789 105.261 17.0923 105.563 17.0923C105.847 17.0923 106.073 16.9789 106.243 16.7521C106.413 16.5254 106.499 16.223 106.499 15.8451V11.2815Z" fill="white"/>
<path d="M123.934 14.5128C123.934 14.6073 123.897 14.6924 123.821 14.7679C123.764 14.8246 123.689 14.853 123.594 14.853H117.415C117.321 14.853 117.273 14.9002 117.273 14.9947V15.8451C117.273 16.223 117.358 16.5254 117.528 16.7521C117.717 16.9789 117.963 17.0923 118.265 17.0923C118.53 17.0923 118.747 16.9978 118.917 16.8088C119.087 16.6198 119.201 16.3836 119.257 16.1002C119.276 15.8923 119.399 15.7884 119.626 15.7884L123.538 16.0151C123.632 16.0151 123.708 16.0529 123.764 16.1285C123.84 16.1852 123.868 16.2703 123.849 16.3836C123.679 19.5394 121.818 21.1173 118.265 21.1173C116.47 21.1173 115.072 20.6921 114.07 19.8418C113.069 18.9725 112.568 17.7631 112.568 16.2136V10.913C112.568 9.43901 113.069 8.25796 114.07 7.3698C115.091 6.46275 116.489 6.00922 118.265 6.00922C120.042 6.00922 121.431 6.4533 122.432 7.34146C123.434 8.22961 123.934 9.42012 123.934 10.913V14.5128ZM118.265 10.0343C117.963 10.0343 117.717 10.1476 117.528 10.3744C117.358 10.6012 117.273 10.9035 117.273 11.2815V12.1602C117.273 12.2547 117.321 12.3019 117.415 12.3019H119.087C119.182 12.3019 119.229 12.2547 119.229 12.1602V11.2815C119.229 10.9224 119.135 10.6295 118.946 10.4028C118.776 10.1571 118.549 10.0343 118.265 10.0343Z" fill="white"/>
<path fill-rule="evenodd" clip-rule="evenodd" d="M3.57103 20.0972C3.174 20.4111 2.63216 20.4705 2.17659 20.25C1.72102 20.0295 1.4314 19.5677 1.4314 19.0615V2.35159C1.4314 1.8454 1.72058 1.38366 2.17659 1.16314C2.63216 0.942619 3.17356 1.00203 3.57059 1.31587L14.1367 9.66843C14.4532 9.91888 14.6381 10.3005 14.6381 10.7041C14.6381 11.1082 14.4536 11.4898 14.1367 11.7403L3.57103 20.0972Z" fill="#FF0000"/>
<path fill-rule="evenodd" clip-rule="evenodd" d="M18.5978 20.3902H17.2773C16.5479 20.3902 15.9568 19.799 15.9568 19.0697V2.34344C15.9568 1.61409 16.5479 1.02295 17.2773 1.02295H18.5978C19.3271 1.02295 19.9183 1.61409 19.9183 2.34344V19.0697C19.9183 19.799 19.3271 20.3902 18.5978 20.3902Z" fill="#FF0000"/>
</svg>
